# xmcd
#
# Track frame offsets:
# 150
# 21212
# 38087
# 49787
# 68762
# 90012
# 113125
# 132215
# 157972
# 176537
# 193637
# 215287
# 229937
# 248162
# 263187
# 277822
#
# Disc length: 4125 seconds
#
# Revision: 3
# Processed by: cddbd v1.5.1PL2 Copyright (c) Steve Scherf et al.
# Submitted via: Audio-CD-Archiv 4.00.530
#
DISCID=cc101b10
DTITLE=Hamburg Blues Band - rollin'
DYEAR=1999
DGENRE=blues
TTITLE0=Hamburg Blues Band - Trouble Man
TTITLE1=Hamburg Blues Band - City Heat
TTITLE2=Hamburg Blues Band - Love me or leave me
TTITLE3=Hamburg Blues Band - Stony Times
TTITLE4=Hamburg Blues Band - Hypnotized
TTITLE5=Hamburg Blues Band - Want you to know
TTITLE6=Hamburg Blues Band - Tender Touch
TTITLE7=Hamburg Blues Band - Hey little Lady
TTITLE8=Hamburg Blues Band - On my way home
TTITLE9=Hamburg Blues Band - Make my day
TTITLE10=Hamburg Blues Band - Tryin' as hard as I can
TTITLE11=Hamburg Blues Band - Someplace, somewhere - sometime
TTITLE12=Hamburg Blues Band - Comfort me
TTITLE13=Hamburg Blues Band - Moonstruck
TTITLE14=Hamburg Blues Band - Spark to afire
TTITLE15=Hamburg Blues Band - Ghost dance
EXTD=
EXTT0=
EXTT1=
EXTT2=
EXTT3=
EXTT4=
EXTT5=
EXTT6=
EXTT7=
EXTT8=
EXTT9=
EXTT10=
EXTT11=
EXTT12=
EXTT13=
EXTT14=
EXTT15=
PLAYORDER=
